<svg width="24" height="24" viewBox="0 0 24 24" fill="none" xmlns="http://www.w3.org/2000/svg">
<path d="M4.39298 18.677L10.109 12.962C8.30152 10.4196 8.74363 6.91642 11.1261 4.90285C13.5085 2.88929 17.0364 3.03714 19.242 5.24298C21.4485 7.44824 21.597 10.9765 19.5836 13.3594C17.5701 15.7422 14.0665 16.1846 11.524 14.377L5.80798 20.092L4.39398 18.678L4.39298 18.677ZM19 9.48498C19.0004 7.58868 17.6693 5.95267 15.8125 5.56745C13.9558 5.18224 12.0837 6.15369 11.3297 7.89366C10.5758 9.63362 11.1471 11.6639 12.6979 12.7552C14.2487 13.8466 16.3527 13.699 17.736 12.402L17.136 13.007L17.816 12.325L17.828 12.313C18.5808 11.5648 19.0029 10.5464 19 9.48498Z" fill="#2E3A59"/>
</svg>
